<?xml version="1.0" encoding="UTF-8"?>
<svg width="1658.1" height="1658.1" version="1.1" viewBox="0 0 1658.1 1658.1" xmlns="http://www.w3.org/2000/svg" xmlns:cc="http://creativecommons.org/ns#" xmlns:dc="http://purl.org/dc/elements/1.1/" xmlns:rdf="http://www.w3.org/1999/02/22-rdf-syntax-ns#"><metadata><rdf:RDF><cc:Work rdf:about=""><dc:format>image/svg+xml</dc:format><dc:type rdf:resource="http://purl.org/dc/dcmitype/StillImage"/><dc:title/></cc:Work></rdf:RDF></metadata><g transform="translate(-1124.7 -377.42)"><path d="m2155.7 1397c-347.54-172.84-371.96-99.383-665.92-206.38 0 0-90.692-302.98-37.802-440.96 50.58-131.96 172-255.43 309.98-292.68 216.09-58.338 471.8-31.314 654.54 150.61 142 141.37 97.366 286.34 74.51 575.29-16.689 135.82-207.22 366.11-335.3 214.12z" fill="#e19b51" stroke="#ae7d00" stroke-opacity=".49865" stroke-width="4" style="paint-order:markers stroke fill"/><path d="m2339.4 1497.3c-28.12 110.48-18.904 134.14-154.02 310.32-107.23 139.82-227.93 174.66-375.05 175.98-169.9 1.5187-174.29-101.03-209.99-189.67-64.926-161.2-158.42-312.68-112.86-559.28 5.5301-29.933-45.379-12.176-44-91.716 1.7455-100.68 17.277-260.86 69.293-331.83 104.03-141.94 282.16-177.53 441.7-173.65 125.06 3.0489 263.87 58.269 338.28 152.81 93.287 118.53 82.947 334.11 70.836 437.28 65.584-59.785 100.76-87.979 141.38-84.5 265.33 22.721-64.459 517.05-165.57 354.25z" fill="#ffc188" stroke="#e19b51" stroke-opacity=".50196" stroke-width="4" style="paint-order:markers stroke fill"/><path d="m2003.1 1088.6c-58.159 0.068-131.81 8.8903-224.29 37.134-57.829-11.504-124.96 8.5277-147.58 2.0743-11.952-3.4089-157.13-73.206-328.99 6.9829l-2.6777 28.506c31.674 23.235 29.025 34.122 29.025 34.122 28.254 193.89 82.886 225.96 169.88 235.69 65.188 7.2915 139.08-54.42 139.08-54.42 10.827-67.986 44.096-109.19 44.096-109.19l-5.2852-56.016c-15.424-20.166-19.943-61.498 43.113-54.388s27.662 57.359 27.662 57.359 1.0684 3.9695 18.318 67.029c50.51 192.06 188.6 172.58 288.45 163.28 99.845-9.2983 121.2-214.78 127.61-245.55 6.4024-30.773 42.775-35.24 42.775-35.24 107.77 1.7634 163.45 6.5172 193.56 14.266 12.649-10.079 24.092-18.15 34.879-24.171-87.421-47.369-239.04-38.479-284.44-45.074-25.581-3.7166-68.174-18.054-134.45-21.599-9.7284-0.5204-19.966-0.8086-30.736-0.7961zm-7.9336 22.236c1.874-0.01 3.737-0.01 5.5898 0 8.8937 0.043 17.538 0.2828 25.877 0.779 72.638 4.3233 122.13 28.179 112.22 112.44-4.9047 138.25-37.367 169.05-37.367 169.05s-9.6806 26.673-66.81 40.177c-136.55 13.607-169.44-28.003-185.66-41.701-16.219-13.698-22.105-39.199-22.105-39.199s-6.336-58.213-40.732-131.48c0 0-14.114-40.785 8.582-61.35 38.666-35.036 87.194-44.273 159.69-47.581 13.964-0.6372 27.591-1.0772 40.709-1.129zm-513.23 4.9976c4.1883-0.01 8.5124 0.1028 12.973 0.3498 1.1325 0.066 2.2738 0.1311 3.4238 0.2136 73.615 5.1534 124.58 31.203 131.69 50.726 13.247 36.379 16.828 149.1-20.83 207.54-37.658 58.443-128.98 42.092-128.98 42.092s-87.217-8.4383-111.53-122.1c0 0-16.675-93.617-6.0215-121.15l85.42 6.5574c-2.4802-7.5774-4.1354-16.994-4.5156-28.841l-56.641-8.1175s32.187-27.137 95.012-27.274z"/></g></svg>
