<?xml version="1.0" encoding="UTF-8"?>
<svg width="1406.4" height="1698.5" version="1.1" viewBox="0 0 1406.4 1698.5" xmlns="http://www.w3.org/2000/svg" xmlns:cc="http://creativecommons.org/ns#" xmlns:dc="http://purl.org/dc/elements/1.1/" xmlns:rdf="http://www.w3.org/1999/02/22-rdf-syntax-ns#"><metadata><rdf:RDF><cc:Work rdf:about=""><dc:format>image/svg+xml</dc:format><dc:type rdf:resource="http://purl.org/dc/dcmitype/StillImage"/><dc:title/></cc:Work></rdf:RDF></metadata><g transform="translate(-978.66 -357.24)"><path d="m1884.9 1374.8c-347.54-172.84-371.96-99.383-665.92-206.38 0 0-90.692-302.98-37.802-440.96 50.58-131.96 172-255.43 309.98-292.68 216.09-58.338 471.8-31.314 654.54 150.61 142 141.37 97.366 286.34 74.51 575.29-16.689 135.82-207.22 366.11-335.3 214.12z" fill="#e19b51"/><path d="m2068.5 1503.4c-28.12 114.12-18.904 138.56-154.02 320.54-107.23 144.42-227.93 180.42-375.05 181.77-169.9 1.5687-174.29-104.36-209.99-195.92-64.926-166.51-158.42-322.98-112.86-577.7 5.5301-30.919-45.379-12.576-44-94.736 1.7455-104 17.277-269.45 69.293-342.76 104.03-146.61 282.16-183.38 441.7-179.36 125.06 3.1493 263.87 60.188 338.28 157.84 93.287 122.43 82.947 345.11 70.836 451.69 65.584-61.754 100.76-90.876 141.38-87.283 265.33 23.469-64.459 534.08-165.57 365.92z" fill="#ffc28b"/><path d="m1732.2 1081.3c-58.159 0.07-131.81 9.1831-224.29 38.357-57.829-11.883-124.96 8.8085-147.58 2.1426-11.952-3.5212-157.13-75.617-328.99 7.2129l-2.6777 29.445c31.674 24 29.025 35.246 29.025 35.246 28.254 200.28 82.886 233.4 169.88 243.45 65.188 7.5316 139.08-56.213 139.08-56.213 10.827-70.225 44.096-112.78 44.096-112.78l-5.2852-57.861c-15.424-20.83-19.943-63.523 43.113-56.18s27.662 59.248 27.662 59.248 1.0684 4.1002 18.318 69.236c50.51 198.39 188.6 178.26 288.45 168.66 99.845-9.6045 121.2-221.85 127.61-253.64 6.4024-31.786 42.775-36.4 42.775-36.4 107.77 1.8214 163.45 6.7318 193.56 14.736 12.649-10.411 24.092-18.748 34.879-24.967-87.421-48.929-239.04-39.746-284.44-46.559-25.581-3.839-68.174-18.649-134.45-22.31-9.7284-0.5375-19.966-0.8352-30.736-0.8223zm-7.9336 22.969c1.874-0.01 3.737-0.01 5.5898 0 8.8937 0.045 17.538 0.2921 25.877 0.8047 72.638 4.4657 122.13 29.107 112.22 116.14-4.9047 142.8-37.367 174.62-37.367 174.62s-9.6806 27.552-66.81 41.5c-136.55 14.055-169.44-28.925-185.66-43.074-16.219-14.149-22.105-40.49-22.105-40.49s-6.336-60.13-40.732-135.81c0 0-14.114-42.129 8.582-63.371 38.666-36.19 87.194-45.731 159.69-49.148 13.964-0.6581 27.591-1.1126 40.709-1.1661zm-513.23 5.1622c4.1883-0.01 8.5124 0.1062 12.973 0.3613 1.1325 0.068 2.2738 0.1355 3.4238 0.2207 73.615 5.3231 124.58 32.23 131.69 52.396 13.247 37.577 16.828 154.01-20.83 214.38-37.658 60.368-128.98 43.478-128.98 43.478s-87.217-8.7162-111.53-126.12c0 0-16.675-96.701-6.0215-125.14l85.42 6.7734c-2.4802-7.827-4.1354-17.554-4.5156-29.791l-56.641-8.3848s32.187-28.031 95.012-28.172z"/></g></svg>
